<?xml version="1.0" encoding="UTF-8"?>
<svg version="1.1" xmlns="http://www.w3.org/2000/svg" width="500" height="500">
<path d="M0 0 C7.35494762 -0.06999824 14.70982156 -0.12306099 22.06503677 -0.15543652 C25.48162993 -0.17098758 28.89799258 -0.19202813 32.31445312 -0.22631836 C36.2564808 -0.26562883 40.19842032 -0.2797964 44.140625 -0.29296875 C45.95074066 -0.31619453 45.95074066 -0.31619453 47.79742432 -0.33988953 C64.07059886 -0.34306749 77.8614749 4.45921954 89.8515625 15.6171875 C91.96223501 17.95811519 93.27983205 20.16645616 94.75 22.9375 C96.67719784 26.11106226 97.51549525 26.86704567 101.16015625 27.8671875 C103.60954266 28.16582927 106.06483289 28.41927786 108.5234375 28.62890625 C116.25415561 29.45409526 122.82944686 33.22691628 128 39 C131.91508158 45.18835475 131.68367709 51.8398683 131 59 C129.75 62.5 129.75 62.5 128 65 C127.443125 65.845625 126.88625 66.69125 126.3125 67.5625 C121.67220762 72.453619 116.38460441 75.0082217 110 77 C110.76183594 77.29132813 111.52367187 77.58265625 112.30859375 77.8828125 C123.24737044 82.22554781 133.83351999 87.41419053 138.875 98.6875 C141.55412284 106.91623445 140.85243501 116.28075522 137 124 C131.66502997 132.60033962 124.89056465 137.55441803 115.24188232 140.54490662 C112.43545742 141.11459995 109.81098234 141.11944418 106.94628906 141.11352539 C105.72532532 141.11344986 104.50436157 141.11337433 103.24639893 141.11329651 C101.93274353 141.10813522 100.61908813 141.10297394 99.265625 141.09765625 C97.9037074 141.09579021 96.54178912 141.09436718 95.17987061 141.09336853 C91.60258111 141.08955803 88.02533248 141.07974032 84.44805908 141.06866455 C80.79480543 141.05841884 77.14154514 141.05386415 73.48828125 141.04882812 C66.32550224 141.03811669 59.16275686 141.02105794 52 141 C52 140.01 52 139.02 52 138 C52.969375 137.566875 53.93875 137.13375 54.9375 136.6875 C58.27731765 135.2985139 58.27731765 135.2985139 59 132 C59.33 125.73 59.66 119.46 60 113 C40.2 113 20.4 113 0 113 C0 112.01 0 111.02 0 110 C0.94875 109.7525 1.8975 109.505 2.875 109.25 C6.03161335 108.33661244 6.03161335 108.33661244 7.17943954 106.17566681 C8.02873332 103.92381532 8.25135654 102.3341314 8.25396729 99.93933105 C8.25960693 99.1402684 8.26524658 98.34120575 8.27105713 97.51792908 C8.26700867 96.6502742 8.26296021 95.78261932 8.25878906 94.88867188 C8.2622937 93.96792374 8.26579834 93.0471756 8.26940918 92.098526 C8.27821112 89.05519063 8.27238271 86.01208774 8.265625 82.96875 C8.26697209 80.85412552 8.26891299 78.73950135 8.27142334 76.62487793 C8.27437252 72.19308524 8.27008352 67.76137317 8.26074219 63.32958984 C8.24934782 57.6465488 8.25590839 51.96369665 8.26788712 46.28066254 C8.27511123 41.91410903 8.27281523 37.54760038 8.26763153 33.18104553 C8.26629657 31.08545408 8.2679374 28.98985856 8.27259064 26.89427185 C8.27766485 23.96651408 8.26993288 21.03906303 8.25878906 18.11132812 C8.26283752 17.24367325 8.26688599 16.37601837 8.27105713 15.48207092 C8.26541748 14.68300827 8.25977783 13.88394562 8.25396729 13.06066895 C8.25283621 12.02314861 8.25283621 12.02314861 8.25168228 10.96466827 C7.94595486 8.57811581 7.30571805 7.01965823 6 5 C2.95800528 3.70768358 2.95800528 3.70768358 0 3 C0 2.01 0 1.02 0 0 Z M18 3 C18 38.31 18 73.62 18 110 C31.86 110 45.72 110 60 110 C60.08727507 97.14748067 60.08727507 97.14748067 60.14648438 84.29492188 C60.1644096 79.05190917 60.18560281 73.80905382 60.22631836 68.56616211 C60.25894274 64.33864811 60.27685951 60.11130289 60.28463173 55.88367271 C60.29016972 54.271739 60.30098415 52.65981441 60.31719017 51.04795265 C60.33900582 48.78803253 60.34196527 46.52880751 60.34057617 44.26879883 C60.34723801 42.98306473 60.35389984 41.69733063 60.36076355 40.37263489 C59.97278169 36.74554688 59.24110172 34.85326845 57 32 C54.40877257 31.11341534 54.40877257 31.11341534 52 31 C52 30.01 52 29.02 52 28 C63.88 28 75.76 28 88 28 C85.76848395 22.42120989 83.0949171 19.26274158 79 15 C78.4740625 14.44828125 77.948125 13.8965625 77.40625 13.328125 C61.71404253 -1.59485661 37.22844381 3 18 3 Z M70 31 C70 46.18 70 61.36 70 77 C81.69689987 77.71335165 81.69689987 77.71335165 93 76 C96.64790807 60.91980859 95.74944827 46.64890069 91 32 C90.67 31.67 90.34 31.34 90 31 C83.4 31 76.8 31 70 31 Z M100 31 C100.13277344 31.59167969 100.26554687 32.18335938 100.40234375 32.79296875 C100.57894531 33.58316406 100.75554687 34.37335938 100.9375 35.1875 C101.11152344 35.96480469 101.28554688 36.74210937 101.46484375 37.54296875 C101.64144531 38.35378906 101.81804687 39.16460937 102 40 C102.17329834 40.7616748 102.34659668 41.52334961 102.52514648 42.30810547 C103.01834016 45.10396845 103.12941171 47.68986707 103.1328125 50.52734375 C103.13410156 51.56697266 103.13539063 52.60660156 103.13671875 53.67773438 C103.13285156 54.75345703 103.12898438 55.82917969 103.125 56.9375 C103.12886719 58.00935547 103.13273437 59.08121094 103.13671875 60.18554688 C103.13047414 65.2280722 103.08505977 70.04833835 102 75 C108.02444416 74.69877779 111.74096838 72.01365531 116 68 C120.96916286 62.39439264 122.36799251 56.41396681 122 49 C120.88618873 43.32347065 118.18159065 38.99978236 114 35 C109.57803081 32.41113804 105.23091748 30.32504291 100 31 Z M70 79 C70 87.91 70 96.82 70 106 C78.65399754 102.53840099 84.76977548 96.31070658 89 88 C89.99 85.03 90.98 82.06 92 79 C84.74 79 77.48 79 70 79 Z M101 80 C100.39865234 81.23363281 100.39865234 81.23363281 99.78515625 82.4921875 C92.81815233 96.17342422 84.4873446 105.20506216 70 111 C70 119.91 70 128.82 70 138 C75.39027803 138.09227295 80.77777174 138.17177317 86.16821289 138.21972656 C87.99838593 138.23973374 89.82849592 138.26694851 91.65844727 138.30175781 C94.30240512 138.35076003 96.94551165 138.37307761 99.58984375 138.390625 C100.39646957 138.41127014 101.2030954 138.43191528 102.03416443 138.45318604 C109.49882211 138.4560769 115.06544746 135.91874589 121.25 131.875 C127.99362465 124.82484696 130.40934904 116.48714799 130.26953125 106.94140625 C129.54498548 99.03440675 126.13118972 93.09812191 120.34765625 87.7578125 C114.49932906 83.37886535 108.19556883 81.00231531 101 80 Z " fill="#323130" transform="translate(177,163)"/>
</svg>
